<?xml version="1.0" encoding="iso-8859-1"?>
<!-- Generator: Adobe Illustrator 19.0.0, SVG Export Plug-In . SVG Version: 6.00 Build 0)  -->
<svg version="1.1" id="Capa_1" xmlns="http://www.w3.org/2000/svg" xmlns:xlink="http://www.w3.org/1999/xlink" x="0px" y="0px"
	 width="35px" height="35px" viewBox="0 0 512 512" style="enable-background:new 0 0 512 512;" xml:space="preserve">
<g>
	<g>
		<path id="moon" d="M457.176,394.93c-0.016-0.253-0.035-0.505-0.064-0.76c-0.029-0.256-0.069-0.509-0.111-0.764
			c-0.025-0.149-0.035-0.297-0.065-0.446c-0.016-0.083-0.043-0.161-0.061-0.243c-0.056-0.261-0.124-0.52-0.194-0.778
			c-0.061-0.225-0.119-0.451-0.189-0.671c-0.077-0.24-0.167-0.474-0.256-0.711c-0.086-0.227-0.168-0.456-0.264-0.678
			c-0.096-0.221-0.206-0.436-0.313-0.654c-0.109-0.222-0.215-0.446-0.335-0.662c-0.117-0.21-0.248-0.413-0.375-0.619
			c-0.13-0.209-0.256-0.42-0.395-0.622c-0.138-0.199-0.29-0.39-0.438-0.585c-0.149-0.195-0.296-0.391-0.454-0.579
			c-0.155-0.182-0.322-0.356-0.487-0.533c-0.173-0.185-0.344-0.371-0.526-0.547c-0.167-0.161-0.343-0.314-0.52-0.468
			c-0.199-0.175-0.398-0.349-0.606-0.515c-0.067-0.053-0.125-0.112-0.193-0.164c-0.124-0.095-0.255-0.172-0.38-0.262
			c-0.205-0.147-0.41-0.291-0.623-0.428c-0.22-0.142-0.443-0.274-0.668-0.403c-0.192-0.11-0.385-0.218-0.583-0.319
			c-0.247-0.127-0.496-0.246-0.748-0.359c-0.19-0.085-0.381-0.167-0.576-0.244c-0.258-0.103-0.518-0.198-0.779-0.285
			c-0.204-0.068-0.408-0.132-0.616-0.192c-0.253-0.073-0.507-0.139-0.764-0.198c-0.226-0.053-0.453-0.099-0.683-0.141
			c-0.242-0.044-0.484-0.083-0.729-0.115c-0.243-0.032-0.489-0.059-0.735-0.079c-0.24-0.02-0.479-0.033-0.72-0.041
			c-0.244-0.008-0.49-0.012-0.736-0.008c-0.255,0.004-0.51,0.016-0.765,0.033c-0.226,0.015-0.452,0.032-0.68,0.058
			c-0.287,0.032-0.573,0.076-0.858,0.125c-0.129,0.022-0.257,0.031-0.386,0.056c-12.039,2.372-24.39,3.575-36.709,3.575
			c-120.86,0-219.189-114.767-219.189-255.836c0-35.1,5.985-69.106,17.787-101.072c0.033-0.091,0.054-0.183,0.085-0.273
			c0.091-0.261,0.171-0.526,0.248-0.792c0.062-0.214,0.124-0.428,0.175-0.644c0.062-0.257,0.111-0.516,0.159-0.777
			c0.043-0.23,0.086-0.46,0.118-0.691c0.033-0.243,0.054-0.489,0.075-0.734c0.022-0.25,0.044-0.5,0.053-0.75
			c0.008-0.226,0.004-0.453,0.002-0.681c-0.003-0.27-0.006-0.539-0.023-0.808c-0.013-0.21-0.038-0.419-0.06-0.63
			c-0.031-0.287-0.064-0.573-0.111-0.856c-0.032-0.196-0.074-0.392-0.114-0.589c-0.061-0.295-0.127-0.588-0.205-0.878
			c-0.023-0.084-0.035-0.168-0.059-0.251c-0.033-0.116-0.081-0.225-0.117-0.34c-0.085-0.269-0.175-0.537-0.275-0.801
			c-0.083-0.22-0.171-0.436-0.263-0.652c-0.096-0.222-0.197-0.441-0.303-0.66c-0.115-0.236-0.235-0.468-0.361-0.696
			c-0.105-0.189-0.216-0.375-0.329-0.56c-0.143-0.233-0.289-0.461-0.444-0.686c-0.123-0.177-0.251-0.35-0.382-0.523
			c-0.159-0.209-0.32-0.415-0.49-0.616c-0.151-0.179-0.309-0.353-0.469-0.526c-0.163-0.175-0.327-0.349-0.499-0.517
			c-0.184-0.18-0.375-0.353-0.569-0.524c-0.166-0.146-0.332-0.29-0.503-0.428c-0.208-0.168-0.422-0.328-0.642-0.486
			c-0.178-0.128-0.358-0.254-0.542-0.374c-0.217-0.142-0.438-0.278-0.665-0.409c-0.209-0.122-0.42-0.239-0.635-0.351
			c-0.208-0.108-0.419-0.213-0.635-0.312c-0.253-0.117-0.51-0.225-0.77-0.329c-0.114-0.045-0.221-0.101-0.337-0.144
			c-0.083-0.031-0.168-0.049-0.251-0.079c-0.279-0.098-0.562-0.183-0.846-0.265c-0.198-0.056-0.394-0.113-0.593-0.161
			c-0.274-0.066-0.552-0.119-0.83-0.17c-0.213-0.039-0.426-0.08-0.641-0.109c-0.26-0.036-0.523-0.058-0.785-0.08
			c-0.233-0.02-0.465-0.041-0.698-0.049c-0.244-0.009-0.489-0.005-0.735-0.002c-0.251,0.003-0.503,0.006-0.753,0.021
			c-0.228,0.014-0.457,0.041-0.686,0.065c-0.266,0.029-0.532,0.06-0.796,0.103c-0.218,0.036-0.436,0.082-0.655,0.127
			c-0.269,0.056-0.537,0.116-0.803,0.187c-0.094,0.025-0.189,0.039-0.283,0.066c-51.7,14.875-98.257,46.732-131.092,89.704
			C17.933,142.274,0,195.352,0,251.371c0,67.589,26.321,131.133,74.113,178.925c47.792,47.793,111.336,74.113,178.925,74.113
			c40.083,0,78.424-9.103,113.96-27.057c33.723-17.038,63.726-41.916,86.808-71.958c0.008-0.01,0.016-0.02,0.024-0.03
			c0.097-0.127,0.2-0.25,0.297-0.377c0.079-0.103,0.142-0.213,0.218-0.317c0.172-0.237,0.34-0.477,0.498-0.725
			c0.12-0.187,0.231-0.376,0.342-0.567c0.132-0.228,0.259-0.457,0.379-0.693c0.109-0.212,0.21-0.426,0.308-0.643
			c0.102-0.226,0.199-0.453,0.29-0.685c0.088-0.224,0.171-0.449,0.248-0.676c0.081-0.237,0.155-0.477,0.224-0.718
			c0.063-0.222,0.121-0.443,0.173-0.668c0.06-0.256,0.113-0.515,0.16-0.775c0.038-0.213,0.072-0.426,0.101-0.642
			c0.037-0.27,0.066-0.542,0.088-0.816c0.017-0.213,0.029-0.425,0.037-0.639c0.01-0.27,0.014-0.541,0.009-0.813
			C457.201,395.385,457.19,395.158,457.176,394.93z M353.456,450.549c-31.299,15.813-65.084,23.831-100.418,23.831
			c-59.568,0-115.57-23.197-157.691-65.318C53.227,366.941,30.03,310.939,30.03,251.371c0-49.371,15.8-96.146,45.691-135.266
			C98.707,86.022,129.312,62.131,163.747,47c-6.88,26.42-10.373,53.839-10.373,81.873c0,75.952,25.66,147.457,72.254,201.342
			c47.132,54.507,109.978,84.525,176.964,84.525c0.748,0,1.495-0.02,2.242-0.027C389.46,428.988,372.102,441.128,353.456,450.549z"
			/>
	</g>
</g>
<g>
	<g>
		<path id="moon" d="M392.604,79.584c-2.158-6.644-7.793-11.394-14.706-12.4l-38.048-5.527L322.835,27.18
			c-3.09-6.264-9.35-10.156-16.334-10.156c-6.986,0-13.245,3.892-16.335,10.154L273.15,61.655l-38.049,5.528
			c-6.912,1.005-12.546,5.756-14.705,12.399c-2.157,6.643-0.39,13.798,4.61,18.671l27.532,26.837l-6.499,37.893
			c-1.181,6.884,1.596,13.711,7.245,17.817c5.651,4.106,12.998,4.639,19.186,1.387l34.03-17.891l34.033,17.892
			c2.689,1.413,5.599,2.111,8.492,2.111c3.762,0,7.497-1.179,10.692-3.499c5.651-4.106,8.426-10.933,7.245-17.816l-6.499-37.893
			l27.53-26.836C392.994,93.382,394.762,86.227,392.604,79.584z M335.057,107.918c-4.296,4.185-6.256,10.213-5.242,16.127
			l3.503,20.423l-18.342-9.643c-5.308-2.79-11.645-2.791-16.953,0l-18.341,9.643l3.503-20.425c1.014-5.912-0.946-11.94-5.238-16.121
			l-14.839-14.463l20.507-2.98c5.935-0.863,11.062-4.589,13.714-9.965l9.17-18.581l9.17,18.578c2.653,5.379,7.78,9.105,13.716,9.968
			l20.506,2.98L335.057,107.918z"/>
	</g>
</g>
<g>
	<g>
		<path id="moon" d="M511.096,243.745c-2.158-6.644-7.793-11.394-14.706-12.4l-38.049-5.528l-17.015-34.477
			c-3.091-6.263-9.35-10.154-16.335-10.154c-6.985,0-13.244,3.892-16.334,10.154l-17.016,34.477l-38.049,5.528
			c-6.912,1.005-12.546,5.756-14.705,12.399c-2.157,6.643-0.39,13.798,4.611,18.671l27.531,26.838l-6.499,37.892
			c-1.181,6.884,1.596,13.711,7.245,17.817c5.652,4.106,13.001,4.638,19.186,1.387l34.03-17.892l34.033,17.893
			c2.689,1.413,5.599,2.111,8.492,2.111c3.762,0,7.497-1.179,10.692-3.5c5.651-4.106,8.426-10.933,7.245-17.816l-6.499-37.893
			l27.53-26.836C511.486,257.543,513.253,250.388,511.096,243.745z M453.549,272.081c-4.296,4.185-6.256,10.213-5.242,16.127
			l3.503,20.423l-18.342-9.643c-2.653-1.394-5.563-2.092-8.474-2.092c-2.91,0-5.822,0.698-8.479,2.092l-18.34,9.643l3.503-20.425
			c1.014-5.912-0.946-11.94-5.239-16.121l-14.838-14.463l20.504-2.98c5.937-0.862,11.065-4.589,13.717-9.966l9.17-18.581
			l9.174,18.589c2.656,5.372,7.781,9.094,13.712,9.957l20.506,2.98L453.549,272.081z"/>
	</g>
</g>
<g>
</g>
<g>
</g>
<g>
</g>
<g>
</g>
<g>
</g>
<g>
</g>
<g>
</g>
<g>
</g>
<g>
</g>
<g>
</g>
<g>
</g>
<g>
</g>
<g>
</g>
<g>
</g>
<g>
</g>
</svg>
