<?xml version="1.0" encoding="utf-8"?>
<!-- Generator: Adobe Illustrator 23.0.1, SVG Export Plug-In . SVG Version: 6.00 Build 0)  -->
<svg version="1.1" id="Layer_1" xmlns="http://www.w3.org/2000/svg" xmlns:xlink="http://www.w3.org/1999/xlink" x="0px" y="0px"
	 viewBox="15 100 300 220" style="enable-background:new 0 0 330 419;" xml:space="preserve">
<style type="text/css">
	.st0{fill-rule:evenodd;clip-rule:evenodd;fill:#cccd00ad;}
	.st1{fill-rule:evenodd;clip-rule:evenodd;fill:#17ac20;}
	.st2{fill-rule:evenodd;clip-rule:evenodd;fill:#b22222;}
</style>
<g>
	<g>
		<path class="st0" d="M125.6,284H48.5c-3,0-5.5-2.2-5.5-5.5V141.5c0-2.8-2.3-5.1-5.1-5.1h-2.3c-2.8,0-5.1,2.3-5.1,5.1v150.3
			c0,2.8,2.3,5.1,5.1,5.1h79.4c18.1,0,34.2,2,43.1,16.3c1,1.6,2.6,2.6,4.5,2.6l5.2,0c1.9,0,3.5-1,4.5-2.6
			c8.9-14.2,25-16.3,42.8-16.3h79.4c2.8,0,5.1-2.3,5.1-5.1V141.5c0-2.8-2.3-5.1-5.1-5.1H292c-2.8,0-5.1,2.3-5.1,5.1v136.9
			c0,3.3-2.6,5.5-5.5,5.5h-77.1c-15.5,0-27.3,1.2-34.3,15.2c-1.9,4.4-8.1,4.4-10-0.4C153.6,285.6,140.4,284,125.6,284L125.6,284z"/>
		<path class="st1" d="M270.7,111.5h-66.5c-8.9,0-16.2,1.1-21.8,3.7c-4.8,2.4-9.4,6.3-11.1,11.6c-0.4,1.3-0.7,6.3-0.7,7.2l0,137.4
			c0,3.7,3.8,6.3,7.2,4.8c7.7-3.5,16.7-4.5,26.4-4.5h66.5c2.8,0,5.1-2.3,5.1-5.1V116.6C275.8,113.8,273.5,111.5,270.7,111.5
			L270.7,111.5z M250.4,202.1h-54.9c-3.4,0-6.3-2.8-6.3-6.3s2.8-6.3,6.3-6.3h54.9c3.4,0,6.3,2.8,6.3,6.3S253.9,202.1,250.4,202.1
			L250.4,202.1z M250.4,175.7h-54.9c-3.4,0-6.3-2.8-6.3-6.3c0-3.4,2.8-6.3,6.3-6.3h54.9c3.4,0,6.3,2.8,6.3,6.3
			C256.7,172.9,253.9,175.7,250.4,175.7L250.4,175.7z M250.4,148.9h-54.9c-3.4,0-6.3-2.8-6.3-6.3c0-3.5,2.8-6.3,6.3-6.3h54.9
			c3.4,0,6.3,2.8,6.3,6.3C256.7,146.1,253.9,148.9,250.4,148.9L250.4,148.9z"/>
		<path class="st2" d="M158.7,126.7c-1.7-5.3-6.3-9.2-11.1-11.6c-5.5-2.6-12.9-3.7-21.8-3.7H59.4c-2.8,0-5.1,2.3-5.1,5.1v149.9
			c0,2.8,2.3,5.1,5.1,5.1h66.5c9.7,0,18.8,1,26.4,4.5c3.4,1.5,7.2-1.1,7.2-4.8l0-137.4C159.5,133,159.2,128.1,158.7,126.7z
			 M133.2,202.1H78.3c-3.4,0-6.3-2.8-6.3-6.3s2.8-6.3,6.3-6.3h54.9c3.4,0,6.3,2.8,6.3,6.3S136.6,202.1,133.2,202.1z M133.2,175.7
			H78.3c-3.4,0-6.3-2.8-6.3-6.3c0-3.4,2.8-6.3,6.3-6.3h54.9c3.4,0,6.3,2.8,6.3,6.3C139.5,172.9,136.6,175.7,133.2,175.7z
			 M133.2,148.9H78.3c-3.4,0-6.3-2.8-6.3-6.3c0-3.5,2.8-6.3,6.3-6.3h54.9c3.4,0,6.3,2.8,6.3,6.3
			C139.5,146.1,136.6,148.9,133.2,148.9z"/>
	</g>
</g>
</svg>
