<?xml version="1.0" standalone="no"?>
<!DOCTYPE svg PUBLIC "-//W3C//DTD SVG 20010904//EN"
 "http://www.w3.org/TR/2001/REC-SVG-20010904/DTD/svg10.dtd">
<svg version="1.0" xmlns="http://www.w3.org/2000/svg"
 width="1200.000000pt" height="1200.000000pt" viewBox="0 0 1200.000000 1200.000000"
 preserveAspectRatio="xMidYMid meet">
<metadata>
Created by potrace 1.11, written by Peter Selinger 2001-2013
</metadata>
<g transform="translate(0.000000,1200.000000) scale(0.100000,-0.100000)"
fill="#000000" stroke="none">
<path d="M1740 9938 c-65 -11 -123 -56 -151 -118 -15 -33 -17 -289 -17 -3060
-1 -2243 2 -3036 10 -3069 15 -58 79 -125 133 -140 31 -8 260 -15 433 -12 9 0
118 0 242 0 124 0 232 0 240 0 8 0 116 0 240 0 124 0 232 -1 240 -1 8 1 260 1
560 1 300 -1 552 0 560 0 31 1 309 -1 407 -2 57 -1 103 -4 103 -7 0 -3 24 -6
53 -7 67 -1 199 -17 237 -28 8 -2 32 -6 52 -9 78 -12 257 -61 313 -86 140 -63
203 -69 276 -29 51 28 101 102 105 157 2 20 3 111 3 202 0 91 0 172 0 180 0 8
0 62 0 120 -1 58 -1 112 0 120 0 8 0 62 0 120 -1 58 -1 112 0 120 0 8 0 62 0
120 -1 58 -1 112 0 120 0 8 0 62 0 120 -1 58 -1 112 -1 120 1 8 1 206 0 440 0
234 0 432 1 440 0 8 0 62 0 120 -1 58 -1 112 0 120 0 8 0 98 0 200 -1 102 -1
192 0 200 0 8 0 62 0 120 -1 58 -1 112 0 120 0 8 0 98 0 200 -1 102 -1 192 0
200 0 8 0 62 0 120 -1 58 -1 112 0 120 0 8 0 98 0 200 -1 102 -1 192 0 200 0
8 0 62 0 120 -1 58 -1 112 -1 120 3 152 0 1190 -4 1230 -3 30 -6 71 -8 90 -6
66 -52 210 -68 210 -5 0 -8 5 -8 12 0 28 -111 156 -190 218 -17 14 -41 33 -52
43 -12 9 -27 17 -33 17 -7 0 -18 6 -24 14 -25 30 -199 102 -326 134 -48 13
-133 29 -195 38 -25 3 -56 8 -70 10 -14 2 -70 6 -125 10 -138 9 -2883 11
-2935 2z m3075 -1009 c45 -17 127 -79 125 -94 0 -3 7 -20 17 -38 11 -21 17
-56 18 -102 0 -63 -4 -77 -34 -126 -37 -62 -92 -101 -162 -116 -71 -14 -2275
-9 -2326 6 -49 13 -121 78 -149 131 -20 40 -27 152 -10 190 26 62 71 111 127
139 l58 29 1143 0 c1103 0 1145 -1 1193 -19z m16 -1078 c92 -44 139 -114 145
-216 5 -101 -45 -186 -141 -238 l-40 -22 -1159 -1 -1158 -1 -47 23 c-25 13
-55 32 -66 42 -112 102 -108 285 10 379 76 61 11 59 1265 58 l1145 -1 46 -23z
m-2185 -1033 c28 0 55 1 60 4 5 3 18 4 29 1 31 -6 121 -6 131 -1 5 3 18 4 29
1 31 -6 121 -6 131 -1 5 3 18 4 29 1 31 -6 121 -6 131 -1 5 3 18 4 29 1 31 -6
121 -6 131 -1 5 3 18 4 29 1 31 -6 121 -6 131 -1 5 3 18 4 29 1 31 -6 121 -6
131 -1 5 3 18 4 29 1 31 -6 121 -6 131 -1 5 3 18 4 29 1 31 -6 121 -6 131 -1
5 3 18 4 29 1 31 -6 121 -6 131 -1 5 3 18 4 29 1 31 -6 121 -6 131 -1 5 3 18
4 29 1 31 -6 121 -6 131 -1 5 3 18 4 29 1 35 -7 122 -6 134 1 6 4 11 2 11 -5
0 -8 3 -9 13 0 8 6 17 8 20 4 4 -3 25 -6 47 -5 135 6 251 -105 256 -243 1 -33
-2 -66 -8 -72 -6 -7 -8 -13 -4 -13 14 0 -27 -64 -63 -99 -35 -34 -60 -49 -106
-67 -35 -12 -2264 -11 -2315 2 -71 17 -107 41 -147 94 -41 55 -43 62 -47 140
-7 130 93 247 217 255 21 1 40 5 43 8 3 3 16 3 27 1 12 -3 45 -5 73 -6z"/>
<path d="M7709 9946 c-2 -2 -101 -7 -219 -10 -118 -3 -232 -8 -252 -10 -88
-11 -199 -29 -258 -42 -14 -3 -36 -7 -50 -10 -97 -18 -246 -84 -357 -156 -110
-72 -273 -243 -273 -287 0 -6 -4 -11 -10 -11 -5 0 -9 -3 -8 -7 1 -5 -5 -24
-14 -44 -17 -39 -24 -72 -35 -179 -4 -36 -7 -1327 -8 -2870 0 -2388 2 -2811
14 -2847 8 -24 18 -43 22 -43 4 0 10 -8 13 -18 7 -21 57 -53 108 -68 51 -16
130 1 223 47 12 6 27 11 35 12 8 2 20 5 25 8 13 7 122 38 190 55 27 6 183 33
235 39 176 24 235 25 1756 26 1340 1 1424 2 1461 19 48 21 89 62 110 110 13
31 15 361 15 3075 0 2689 -2 3044 -15 3075 -29 67 -86 114 -152 124 -29 5
-284 8 -435 5 -8 0 -224 -1 -480 0 -256 0 -472 0 -480 0 -8 -1 -116 0 -240 0
-124 0 -232 0 -240 0 -24 -1 -465 0 -569 1 -52 1 -98 3 -101 5 -4 3 -9 3 -11
1z m1782 -1012 c62 -19 133 -83 155 -141 22 -56 22 -145 1 -195 -22 -52 -72
-104 -126 -130 l-46 -23 -1140 0 c-849 -1 -1150 2 -1180 11 -63 19 -99 44
-138 96 -94 128 -42 311 108 375 l50 21 1135 0 c930 0 1143 -3 1181 -14z m-11
-1066 c66 -20 129 -72 158 -131 66 -132 7 -293 -128 -345 -42 -16 -126 -17
-1190 -16 -630 0 -1155 2 -1167 5 -38 9 -112 62 -136 98 -37 56 -50 106 -43
171 10 113 96 203 211 222 31 5 2278 1 2295 -4z m49 -1076 c88 -48 140 -135
135 -231 -1 -32 -7 -68 -13 -80 -7 -11 -9 -21 -6 -21 3 0 1 -6 -4 -12 -6 -7
-22 -27 -36 -45 -14 -18 -51 -44 -82 -60 l-57 -27 -1146 0 -1145 0 -50 23
c-57 25 -99 62 -123 106 -22 42 -25 52 -28 121 -4 103 42 177 141 228 l50 25
1160 -2 1160 -2 44 -23z"/>
<path d="M786 8938 c-77 -16 -125 -59 -150 -133 -14 -41 -16 -357 -16 -3078 1
-2408 3 -3039 13 -3067 17 -47 54 -87 102 -113 l40 -21 1735 -2 c954 -1 1778
-4 1830 -8 156 -11 205 -16 330 -32 46 -5 195 -35 266 -53 79 -20 239 -81 299
-113 94 -52 125 -70 178 -109 58 -42 154 -133 207 -195 37 -43 80 -102 80
-108 0 -3 10 -18 23 -32 81 -97 104 -105 277 -105 74 0 145 2 157 5 49 11 102
52 144 113 127 184 285 328 454 416 33 17 62 32 65 32 3 1 26 11 52 23 42 19
190 69 228 77 8 2 44 10 80 18 36 9 83 18 105 21 23 4 52 9 65 11 38 8 140 17
330 31 58 4 881 8 1830 9 1598 1 1727 2 1755 18 48 27 72 51 97 98 l23 44 -1
3050 c0 2933 -1 3051 -18 3088 -29 59 -88 104 -152 115 -84 14 -181 5 -227
-21 -50 -27 -97 -84 -102 -123 -2 -16 -4 -29 -6 -29 -1 0 -2 -1249 -3 -2775
l-1 -2775 -24 -48 c-27 -55 -73 -94 -133 -111 -34 -10 -393 -12 -1628 -11
-872 1 -1593 -3 -1603 -7 -9 -5 -17 -5 -17 -1 0 13 -387 -6 -440 -22 -8 -2
-32 -6 -52 -9 -21 -2 -41 -7 -45 -9 -4 -3 -24 -8 -44 -11 -69 -11 -233 -75
-312 -123 -96 -58 -224 -182 -289 -280 -27 -39 -48 -76 -48 -81 0 -6 -3 -12
-7 -14 -5 -1 -19 -23 -32 -48 -32 -60 -48 -77 -99 -107 -81 -48 -193 -27 -256
48 -15 18 -39 55 -53 83 -28 57 -97 162 -122 187 -9 9 -25 27 -37 40 -97 111
-231 194 -419 258 -75 25 -169 46 -250 57 -22 2 -46 7 -54 10 -16 5 -190 17
-273 18 -32 0 -58 5 -58 10 0 5 -5 5 -12 -1 -14 -10 -124 -10 -134 0 -4 3 -14
2 -23 -3 -10 -5 -23 -5 -31 0 -8 5 -21 5 -31 -1 -11 -6 -20 -5 -24 1 -4 6 -15
6 -30 0 -15 -6 -25 -6 -25 0 0 5 -12 5 -30 0 -18 -5 -30 -5 -30 0 0 6 -10 6
-25 0 -16 -6 -25 -6 -25 0 0 6 -9 6 -25 0 -15 -6 -25 -6 -25 0 0 5 -12 5 -30
0 -18 -5 -30 -5 -30 0 0 6 -10 6 -25 0 -16 -6 -25 -6 -25 0 0 6 -9 6 -25 0
-15 -6 -25 -6 -25 0 0 5 -12 5 -30 0 -18 -5 -30 -5 -30 0 0 5 -10 6 -22 2 -26
-9 -75 -8 -84 1 -3 3 -17 2 -30 -3 -14 -6 -26 -6 -29 0 -3 6 -15 6 -30 0 -15
-6 -25 -6 -25 0 0 5 -12 5 -30 0 -18 -5 -30 -5 -30 0 0 6 -10 6 -25 0 -14 -5
-25 -6 -25 -1 0 5 -16 5 -35 1 -19 -4 -37 -4 -40 1 -3 4 -17 4 -30 -1 -15 -6
-25 -6 -25 0 0 5 -12 5 -30 0 -18 -5 -30 -5 -30 0 0 6 -10 6 -25 0 -14 -5 -25
-6 -25 -1 0 5 -16 5 -35 1 -19 -4 -37 -4 -40 1 -3 4 -17 4 -30 -1 -15 -6 -25
-6 -25 0 0 5 -12 5 -30 0 -18 -5 -30 -5 -30 0 0 6 -10 6 -25 0 -14 -5 -25 -6
-25 -1 0 5 -16 5 -35 1 -19 -4 -37 -4 -40 1 -3 4 -17 4 -30 -1 -15 -6 -25 -6
-25 0 0 5 -12 5 -30 0 -18 -5 -30 -5 -30 0 0 6 -10 6 -25 0 -14 -5 -25 -6 -25
-1 0 5 -16 5 -35 1 -19 -4 -37 -4 -40 1 -3 4 -17 4 -30 -1 -15 -6 -25 -6 -25
0 0 5 -12 5 -30 0 -18 -5 -30 -5 -30 0 0 6 -10 6 -25 0 -14 -5 -25 -6 -25 -1
0 5 -16 5 -35 1 -19 -4 -37 -4 -40 1 -3 4 -17 4 -30 -1 -15 -6 -25 -6 -25 0 0
5 -12 5 -30 0 -18 -5 -30 -5 -30 0 0 6 -10 6 -25 0 -14 -5 -25 -6 -25 -1 0 5
-16 5 -35 1 -19 -4 -37 -4 -40 1 -3 4 -17 4 -30 -1 -15 -6 -25 -6 -25 0 0 5
-12 5 -30 0 -18 -5 -30 -5 -30 0 0 6 -10 6 -25 0 -14 -5 -25 -6 -25 -1 0 5
-16 5 -35 1 -19 -4 -37 -4 -40 1 -3 4 -17 4 -30 -1 -15 -6 -25 -6 -25 0 0 5
-12 5 -30 0 -18 -5 -30 -5 -30 0 0 6 -10 6 -25 0 -14 -5 -25 -6 -25 -1 0 5
-16 5 -35 1 -19 -4 -37 -4 -40 1 -3 4 -17 4 -30 -1 -15 -6 -25 -6 -25 0 0 5
-12 5 -30 0 -18 -5 -30 -5 -30 0 0 6 -10 6 -25 0 -14 -5 -25 -6 -25 -1 0 5
-16 5 -35 1 -19 -4 -37 -4 -40 1 -3 4 -17 4 -30 -1 -15 -6 -25 -6 -25 0 0 5
-12 5 -30 0 -18 -5 -30 -5 -30 0 0 6 -10 6 -25 0 -15 -6 -25 -6 -25 0 0 5 -12
5 -29 0 -16 -4 -32 -5 -35 -2 -4 3 -14 6 -24 7 -53 5 -86 21 -127 62 -25 24
-48 57 -51 71 -4 15 -11 33 -17 40 -5 6 -6 12 -1 12 7 0 10 63 4 80 -2 3 -2 9
-1 14 6 31 6 88 -1 92 -4 3 -3 16 2 29 6 15 6 27 -1 30 -5 4 -7 11 -3 16 6 10
7 94 2 187 -2 28 -1 52 2 52 7 0 3 170 -4 177 -3 3 -1 13 4 22 5 10 5 23 0 30
-4 8 -4 27 0 42 5 16 5 31 0 34 -6 3 -5 16 0 29 5 13 6 26 3 29 -7 7 -10 117
-3 117 3 0 4 35 2 77 -2 75 -2 105 0 185 1 21 -1 40 -5 44 -3 3 -2 17 3 30 6
14 6 26 -1 29 -5 4 -7 10 -4 15 4 7 6 62 4 110 0 8 1 41 2 72 2 32 0 60 -3 64
-4 3 -3 17 2 30 6 14 6 26 -1 29 -5 4 -7 10 -4 15 4 7 6 62 4 110 0 8 1 41 2
72 2 32 0 60 -3 64 -4 3 -3 17 2 30 6 14 6 26 -1 29 -5 4 -7 10 -4 15 4 7 6
62 4 110 0 8 1 41 2 72 2 32 0 60 -3 64 -4 3 -3 16 2 29 5 13 6 25 3 28 -7 7
-10 117 -3 117 7 0 3 170 -4 177 -3 3 -1 13 4 22 5 10 5 23 0 30 -4 8 -4 27 0
42 5 16 5 31 0 34 -6 3 -5 16 0 29 5 13 6 26 3 29 -7 7 -10 117 -3 117 7 0 4
160 -3 167 -3 3 -2 16 3 29 6 14 6 26 -1 29 -5 4 -7 11 -3 16 6 10 7 94 2 187
-2 28 -1 52 2 52 7 0 3 170 -4 177 -3 3 -1 13 4 22 5 10 5 23 0 30 -4 8 -4 27
0 42 5 16 5 31 0 34 -6 3 -5 16 0 29 5 13 6 26 3 29 -7 7 -10 117 -3 117 7 0
4 160 -3 167 -3 3 -2 16 3 29 6 14 6 26 -1 29 -5 4 -7 11 -3 16 6 10 7 94 2
187 -2 28 -1 52 2 52 7 0 3 170 -4 177 -3 3 -1 13 4 22 5 10 5 23 0 30 -4 8
-4 27 0 42 5 16 5 31 0 34 -6 3 -5 16 0 29 5 13 6 26 3 29 -7 7 -10 117 -3
117 3 0 4 35 2 77 -2 75 -2 105 0 185 1 21 -1 40 -5 44 -3 3 -2 17 3 30 6 14
6 26 -1 29 -5 4 -7 10 -4 15 4 7 6 62 4 110 0 8 0 40 1 70 1 30 1 60 0 65 -1
6 -2 28 -2 50 1 88 -43 163 -115 196 -48 22 -155 30 -217 17z"/>
</g>
</svg>
