<?xml version="1.0" encoding="utf-8"?>
<!-- Generator: Adobe Illustrator 23.0.1, SVG Export Plug-In . SVG Version: 6.00 Build 0)  -->
<svg version="1.1" id="Layer_1" xmlns="http://www.w3.org/2000/svg" xmlns:xlink="http://www.w3.org/1999/xlink" x="0px" y="0px"
	 viewBox="0 0 330 419" style="enable-background:new 0 0 330 419;" xml:space="preserve">
<style type="text/css">
	.st0{fill:#FFFFFF;}
	.st1{fill-rule:evenodd;clip-rule:evenodd;fill:#FFFFFF;}
</style>
<g>
	<path class="st0" d="M99.1,347.2h12.4c5.7,0,9.8,0.8,12.3,2.4c2.6,1.6,3.8,4.2,3.8,7.7c0,2.4-0.6,4.4-1.7,5.9s-2.6,2.5-4.5,2.8v0.3
		c2.5,0.6,4.4,1.6,5.5,3.2s1.7,3.6,1.7,6.2c0,3.6-1.3,6.5-3.9,8.5s-6.2,3.1-10.7,3.1h-15L99.1,347.2z M107.5,363h4.9
		c2.3,0,4-0.4,5-1.1s1.5-1.9,1.5-3.5c0-1.5-0.6-2.6-1.7-3.3c-1.1-0.7-2.9-1-5.3-1h-4.5L107.5,363L107.5,363z M107.5,369.7v10.4h5.5
		c2.3,0,4.1-0.5,5.2-1.3s1.7-2.3,1.7-4.1c0-3.3-2.4-5-7.1-5H107.5z"/>
	<path class="st0" d="M163.8,371.8c0,5-1.3,8.9-3.9,11.7c-2.6,2.8-6.3,4.2-11,4.2c-2.9,0-5.5-0.6-7.8-1.9s-4-3.1-5.2-5.5
		s-1.8-5.2-1.8-8.4c0-5,1.3-8.9,3.9-11.6s6.3-4.2,11-4.2c2.9,0,5.5,0.6,7.8,1.9c2.2,1.3,4,3.1,5.2,5.5
		C163.2,365.8,163.8,368.6,163.8,371.8L163.8,371.8z M142.7,371.8c0,3,0.5,5.3,1.5,6.9s2.6,2.3,4.9,2.3c2.2,0,3.8-0.8,4.8-2.3
		c1-1.5,1.5-3.8,1.5-6.9c0-3-0.5-5.3-1.5-6.8c-1-1.5-2.6-2.3-4.8-2.3c-2.2,0-3.8,0.8-4.8,2.3S142.7,368.8,142.7,371.8L142.7,371.8z"
		/>
	<path class="st0" d="M198.5,371.8c0,5-1.3,8.9-3.9,11.7c-2.6,2.8-6.3,4.2-11,4.2c-2.9,0-5.5-0.6-7.8-1.9s-4-3.1-5.2-5.5
		s-1.8-5.2-1.8-8.4c0-5,1.3-8.9,3.9-11.6s6.3-4.2,11-4.2c2.9,0,5.5,0.6,7.8,1.9c2.2,1.3,4,3.1,5.2,5.5
		C197.9,365.8,198.5,368.6,198.5,371.8L198.5,371.8z M177.3,371.8c0,3,0.5,5.3,1.5,6.9s2.6,2.3,4.9,2.3c2.2,0,3.8-0.8,4.8-2.3
		c1-1.5,1.5-3.8,1.5-6.9c0-3-0.5-5.3-1.5-6.8c-1-1.5-2.6-2.3-4.8-2.3c-2.2,0-3.8,0.8-4.8,2.3S177.3,368.8,177.3,371.8L177.3,371.8z"
		/>
	<path class="st0" d="M213.4,370.5l3.6-4.6l8.6-9.3h9.4l-12.1,13.3l12.9,17.3h-9.6l-8.8-12.4l-3.6,2.9v9.5h-8.3v-42.5h8.3v19
		L213.4,370.5L213.4,370.5z"/>
	<g>
		<path class="st1" d="M125.6,237.6H48.5c-3,0-5.5-2.2-5.5-5.5V95.1c0-2.8-2.3-5.1-5.1-5.1h-2.3c-2.8,0-5.1,2.3-5.1,5.1v150.3
			c0,2.8,2.3,5.1,5.1,5.1h79.4c18.1,0,34.2,2,43.1,16.3c1,1.6,2.6,2.6,4.5,2.6l5.2,0c1.9,0,3.5-1,4.5-2.6
			c8.9-14.2,25-16.3,42.8-16.3h79.4c2.8,0,5.1-2.3,5.1-5.1V95.1c0-2.8-2.3-5.1-5.1-5.1H292c-2.8,0-5.1,2.3-5.1,5.1v136.9
			c0,3.3-2.6,5.5-5.5,5.5h-77.1c-15.5,0-27.3,1.2-34.3,15.2c-1.9,4.4-8.1,4.4-10-0.4C153.6,239.2,140.4,237.6,125.6,237.6
			L125.6,237.6z"/>
		<path class="st1" d="M270.7,65h-66.5c-8.9,0-16.2,1.1-21.8,3.7c-4.8,2.4-9.4,6.3-11.1,11.6c-0.4,1.3-0.7,6.3-0.7,7.2l0,137.4
			c0,3.7,3.8,6.3,7.2,4.8c7.7-3.5,16.7-4.5,26.4-4.5h66.5c2.8,0,5.1-2.3,5.1-5.1V70.2C275.8,67.3,273.5,65,270.7,65L270.7,65z
			 M250.4,155.7h-54.9c-3.4,0-6.3-2.8-6.3-6.3s2.8-6.3,6.3-6.3h54.9c3.4,0,6.3,2.8,6.3,6.3S253.9,155.7,250.4,155.7L250.4,155.7z
			 M250.4,129.3h-54.9c-3.4,0-6.3-2.8-6.3-6.3c0-3.4,2.8-6.3,6.3-6.3h54.9c3.4,0,6.3,2.8,6.3,6.3
			C256.7,126.4,253.9,129.3,250.4,129.3L250.4,129.3z M250.4,102.5h-54.9c-3.4,0-6.3-2.8-6.3-6.3s2.8-6.3,6.3-6.3h54.9
			c3.4,0,6.3,2.8,6.3,6.3S253.9,102.5,250.4,102.5L250.4,102.5z"/>
		<path class="st1" d="M158.7,80.3c-1.7-5.3-6.3-9.2-11.1-11.6c-5.5-2.6-12.9-3.7-21.8-3.7H59.4c-2.8,0-5.1,2.3-5.1,5.1v149.9
			c0,2.8,2.3,5.1,5.1,5.1h66.5c9.7,0,18.8,1,26.4,4.5c3.4,1.5,7.2-1.1,7.2-4.8l0-137.4C159.5,86.6,159.2,81.6,158.7,80.3z
			 M133.2,155.7H78.3c-3.4,0-6.3-2.8-6.3-6.3s2.8-6.3,6.3-6.3h54.9c3.4,0,6.3,2.8,6.3,6.3S136.6,155.7,133.2,155.7z M133.2,129.3
			H78.3c-3.4,0-6.3-2.8-6.3-6.3c0-3.4,2.8-6.3,6.3-6.3h54.9c3.4,0,6.3,2.8,6.3,6.3S136.6,129.3,133.2,129.3z M133.2,102.5H78.3
			c-3.4,0-6.3-2.8-6.3-6.3s2.8-6.3,6.3-6.3h54.9c3.4,0,6.3,2.8,6.3,6.3S136.6,102.5,133.2,102.5z"/>
	</g>
</g>
</svg>
